<?xml version="1.0" standalone="no"?>
<!DOCTYPE svg PUBLIC "-//W3C//DTD SVG 20010904//EN"
 "http://www.w3.org/TR/2001/REC-SVG-20010904/DTD/svg10.dtd">
<svg version="1.0" xmlns="http://www.w3.org/2000/svg"
 width="564.000000pt" height="768.000000pt" viewBox="0 0 564.000000 768.000000"
 preserveAspectRatio="xMidYMid meet">

<g transform="translate(0.000000,768.000000) scale(0.100000,-0.100000)"
fill="#000000" stroke="none">
<path d="M2605 7630 c-726 -53 -1395 -383 -1866 -920 -202 -231 -383 -537
-487 -825 -46 -127 -105 -356 -128 -500 -22 -132 -31 -659 -14 -835 67 -720
391 -1444 1088 -2430 231 -326 906 -1222 1068 -1416 50 -61 163 -188 250 -283
88 -95 191 -208 229 -251 39 -43 72 -79 75 -79 14 0 616 729 785 952 831 1097
1285 1814 1583 2502 478 1103 469 2024 -26 2770 -149 224 -448 555 -642 712
-403 323 -873 522 -1390 587 -151 19 -387 26 -525 16z m451 -1460 c512 -108
915 -503 1033 -1015 153 -668 -207 -1354 -834 -1588 -520 -194 -1105 -39
-1462 388 -210 252 -323 561 -323 885 0 689 506 1267 1180 1350 104 12 298 3
406 -20z"/>
</g>
</svg>
